<svg width="37" height="37" viewBox="0 0 37 37" fill="none" xmlns="http://www.w3.org/2000/svg">
<path d="M10.7917 21.5832C10.7917 20.7317 11.482 20.0415 12.3334 20.0415C13.1849 20.0415 13.8751 20.7317 13.8751 21.5832C13.8751 22.4346 13.1849 23.1248 12.3334 23.1248C11.482 23.1248 10.7917 22.4346 10.7917 21.5832Z" fill="#6C6C6C"/>
<path d="M12.3334 26.2085C11.482 26.2085 10.7917 26.8987 10.7917 27.7502C10.7917 28.6016 11.482 29.2918 12.3334 29.2918C13.1849 29.2918 13.8751 28.6016 13.8751 27.7502C13.8751 26.8987 13.1849 26.2085 12.3334 26.2085Z" fill="#6C6C6C"/>
<path d="M16.9583 21.5832C16.9583 20.7317 17.6485 20.0415 18.4999 20.0415C19.3514 20.0415 20.0416 20.7317 20.0416 21.5832C20.0416 22.4346 19.3514 23.1248 18.4999 23.1248C17.6485 23.1248 16.9583 22.4346 16.9583 21.5832Z" fill="#6C6C6C"/>
<path d="M18.4999 26.2085C17.6485 26.2085 16.9583 26.8987 16.9583 27.7502C16.9583 28.6016 17.6485 29.2918 18.4999 29.2918C19.3514 29.2918 20.0416 28.6016 20.0416 27.7502C20.0416 26.8987 19.3514 26.2085 18.4999 26.2085Z" fill="#6C6C6C"/>
<path d="M23.125 21.5832C23.125 20.7317 23.8152 20.0415 24.6667 20.0415C25.5181 20.0415 26.2083 20.7317 26.2083 21.5832C26.2083 22.4346 25.5181 23.1248 24.6667 23.1248C23.8152 23.1248 23.125 22.4346 23.125 21.5832Z" fill="#6C6C6C"/>
<path d="M24.6667 26.2085C23.8152 26.2085 23.125 26.8987 23.125 27.7502C23.125 28.6016 23.8152 29.2918 24.6667 29.2918C25.5181 29.2918 26.2083 28.6016 26.2083 27.7502C26.2083 26.8987 25.5181 26.2085 24.6667 26.2085Z" fill="#6C6C6C"/>
<path fill-rule="evenodd" clip-rule="evenodd" d="M9.24992 3.08317C9.24992 2.23174 9.94015 1.5415 10.7916 1.5415C11.643 1.5415 12.3333 2.23174 12.3333 3.08317V4.62484H24.6666V3.08317C24.6666 2.23174 25.3568 1.5415 26.2083 1.5415C27.0597 1.5415 27.7499 2.23174 27.7499 3.08317V4.62484H29.2916C31.846 4.62484 33.9166 6.69553 33.9166 9.24984V30.8332C33.9166 33.3876 31.846 35.4582 29.2916 35.4582H7.70825C5.15394 35.4582 3.08325 33.3876 3.08325 30.8332V9.24984C3.08325 6.69553 5.15394 4.62484 7.70825 4.62484H9.24992V3.08317ZM24.6666 7.70817V9.24984C24.6666 10.1013 25.3568 10.7915 26.2083 10.7915C27.0597 10.7915 27.7499 10.1013 27.7499 9.24984V7.70817H29.2916C30.143 7.70817 30.8333 8.39841 30.8333 9.24984V13.8748H6.16659V9.24984C6.16659 8.39841 6.85682 7.70817 7.70825 7.70817H9.24992V9.24984C9.24992 10.1013 9.94015 10.7915 10.7916 10.7915C11.643 10.7915 12.3333 10.1013 12.3333 9.24984V7.70817H24.6666ZM6.16659 16.9582V30.8332C6.16659 31.6846 6.85682 32.3748 7.70825 32.3748H29.2916C30.143 32.3748 30.8333 31.6846 30.8333 30.8332V16.9582H6.16659Z" fill="#6C6C6C"/>
</svg>
